<svg width="16" height="16" viewBox="0 0 16 16" fill="none" xmlns="http://www.w3.org/2000/svg">
    <path fill-rule="evenodd" clip-rule="evenodd"
          d="M15.6212 13.5769L11.9427 9.89849C12.5675 8.90341 12.9306 7.72732 12.9306 6.46519C12.9306 2.8945 10.0354 0 6.46519 0C2.8945 0 0 2.8945 0 6.46519C0 10.0359 2.8945 12.9299 6.46519 12.9299C7.83861 12.9299 9.11051 12.5004 10.1576 11.771L13.7921 15.4055C14.0447 15.658 14.3762 15.7836 14.7064 15.7836C15.0377 15.7836 15.3686 15.658 15.6212 15.4055C16.1263 14.9004 16.1263 14.0821 15.6212 13.5769ZM6.46519 10.835C4.0514 10.835 2.09473 8.87899 2.09473 6.46519C2.09473 4.0514 4.0514 2.09473 6.46519 2.09473C8.87832 2.09473 10.8352 4.0514 10.8352 6.46519C10.8352 8.87899 8.87832 10.835 6.46519 10.835Z"
          fill="#9B9EAC"/>
</svg>
